<svg xmlns="http://www.w3.org/2000/svg" width="421.67" height="158.02" viewBox="0 0 421.67 158.02">
  <path id="Tracé_12" data-name="Tracé 12" d="M381.165,187.11a31.667,31.667,0,0,1-4.786-.374c-5.769-.882-12.147-3.349-18.955-7.334a140.728,140.728,0,0,1-23.348-17.841,332.252,332.252,0,0,1-28.249-29.925,317.639,317.639,0,0,0-26.891-28.218,259.933,259.933,0,0,0-27.1-21.925,222.589,222.589,0,0,0-27.049-16.253,201.159,201.159,0,0,0-26.725-11.2A192.037,192.037,0,0,0,136.7,44.077a209.868,209.868,0,0,0-36.97,3.341A239.929,239.929,0,0,0,59.466,58.4,263.505,263.505,0,0,0,28.028,72.342,208.411,208.411,0,0,0,.305,89.4L-.306,88.6c.026-.02,2.626-2.021,7.341-5.12,4.346-2.857,11.435-7.262,20.529-12.028a264.518,264.518,0,0,1,31.558-14,240.932,240.932,0,0,1,40.43-11.026c34.183-6.111,67.432-3.87,98.823,6.66a202.163,202.163,0,0,1,26.858,11.256A223.592,223.592,0,0,1,252.4,80.674a260.936,260.936,0,0,1,27.21,22.01,318.639,318.639,0,0,1,26.977,28.307c36.824,43.551,65.226,61.434,84.418,53.152a26.056,26.056,0,0,0,7.156-4.674,37.237,37.237,0,0,0,5.961-7.078,74.1,74.1,0,0,0,8.7-19.942c3.978-13.614,6.411-31.264,7.232-52.459.4-10.417.609-27.391-.7-49.1-.785-12.98-1.754-21.6-1.764-21.689l.994-.113c.01.086.982,8.735,1.768,21.742.725,12,1.437,30.282.7,49.2-.824,21.277-3.271,39.008-7.271,52.7a75.081,75.081,0,0,1-8.825,20.213,38.232,38.232,0,0,1-6.124,7.268,27.052,27.052,0,0,1-7.431,4.851A25.626,25.626,0,0,1,381.165,187.11Z" transform="translate(0.306 -29.09)" fill="#eb296f"/>
</svg>
