<svg xmlns="http://www.w3.org/2000/svg" width="338.122" height="205.131" viewBox="0 0 338.122 205.131">
  <path id="Tracé_13" data-name="Tracé 13" d="M253.516,205.525l-.976-.219a62.51,62.51,0,0,0,.641-18.153,57.357,57.357,0,0,0-4.331-16.832,49.471,49.471,0,0,0-11.971-16.834c-12.189-11.2-30.707-17.346-55.04-18.258a200.7,200.7,0,0,0-22.549.515c-8.365.635-17.373,1.764-26.773,3.355-20.132,3.407-42.883,9.071-67.622,16.835a295.783,295.783,0,0,1-46.3,10.912,152.8,152.8,0,0,1-36,1.25A95.878,95.878,0,0,1-31.91,165.59a74.72,74.72,0,0,1-12.373-4.335,60.681,60.681,0,0,1-18.9-13.358,65.185,65.185,0,0,1-12.53-19.32,94.2,94.2,0,0,1-6.317-22.807c-2.17-14.1-2.053-30.436.349-48.569a294.162,294.162,0,0,1,8.351-40.1C-70.484,6.919-68.1.458-68.081.394l.938.347c-.024.064-2.392,6.5-5.234,16.648A296.486,296.486,0,0,0-80.7,57.351c-2.388,18.035-2.505,34.277-.348,48.277A93.2,93.2,0,0,0-74.8,128.187a64.19,64.19,0,0,0,12.335,19.022,59.687,59.687,0,0,0,18.595,13.137A83.5,83.5,0,0,0-17.3,167.1a151.817,151.817,0,0,0,35.76-1.245A294.8,294.8,0,0,0,64.6,154.98c24.786-7.778,47.584-13.453,67.763-16.868,9.431-1.6,18.47-2.728,26.866-3.366a201.664,201.664,0,0,1,22.663-.516c24.578.923,43.31,7.157,55.677,18.529a50.467,50.467,0,0,1,12.214,17.19,58.377,58.377,0,0,1,4.4,17.137,68.1,68.1,0,0,1,.086,13.155A45.61,45.61,0,0,1,253.516,205.525Z" transform="translate(83.579 -0.394)" fill="#eb296f"/>
</svg>
