<svg xmlns="http://www.w3.org/2000/svg" width="432.241" height="112.337" viewBox="0 0 432.241 112.337">
  <path id="Tracé_11" data-name="Tracé 11" d="M183.435,110.729a61.112,61.112,0,0,1-17.283-2.309,44.831,44.831,0,0,1-15.576-8.1,46.794,46.794,0,0,1-6.59-6.535,56.357,56.357,0,0,1-5.693-8.349,223.657,223.657,0,0,0-22.445-33.019,169.949,169.949,0,0,0-23.407-23.4A133.17,133.17,0,0,0,47.612,4.624,119.17,119.17,0,0,0,28.628.415,109.675,109.675,0,0,0,13.56-.608,72.9,72.9,0,0,0,.073.491L-.094-.491A73.765,73.765,0,0,1,13.558-1.608,110.458,110.458,0,0,1,28.735-.578,119.973,119.973,0,0,1,47.848,3.66,134.018,134.018,0,0,1,92.963,28.21,170.884,170.884,0,0,1,116.5,51.738,224.655,224.655,0,0,1,139.046,84.9a55.358,55.358,0,0,0,5.591,8.2,45.863,45.863,0,0,0,6.458,6.4,43.984,43.984,0,0,0,15.283,7.943,61.055,61.055,0,0,0,18.049,2.269,105.929,105.929,0,0,0,20.3-2.45c28.363-5.991,61.228-21.987,93.011-37.455,36.934-17.976,72.323-35.2,97.531-35.2,8.15,0,15.234,1.8,20.965,5.956a29.414,29.414,0,0,1,6.6,6.685,40.091,40.091,0,0,1,4.937,9.507,65.641,65.641,0,0,1,3.145,12.553,113.649,113.649,0,0,1,1.234,15.845l-.89.015a112.518,112.518,0,0,0-1.221-15.687,64.545,64.545,0,0,0-3.091-12.342,39.062,39.062,0,0,0-4.808-9.263,28.481,28.481,0,0,0-6.385-6.473,28.993,28.993,0,0,0-9.613-4.491,42.99,42.99,0,0,0-11.549-1.3c-7.842.1-16.989,1.823-27.964,5.28a303.714,303.714,0,0,0-32.81,12.89c-11.531,5.172-23.282,10.891-35.723,16.946-31.828,15.49-64.739,31.508-93.2,37.52a106.724,106.724,0,0,1-20.456,2.467Q183.934,110.729,183.435,110.729Z" transform="translate(0.094 1.609)" fill="#eb296f"/>
</svg>
