<svg xmlns="http://www.w3.org/2000/svg" xmlns:xlink="http://www.w3.org/1999/xlink" width="366.755" height="306.409" viewBox="0 0 366.755 306.409">
  <defs>
    <clipPath id="clip-path">
      <rect id="Rectangle_1" data-name="Rectangle 1" width="366.755" height="306.409" fill="none"/>
    </clipPath>
  </defs>
  <g id="Groupe_2" data-name="Groupe 2" clip-path="url(#clip-path)">
    <path id="Tracé_1" data-name="Tracé 1" d="M276.058,286.925c-.007-.084-.006-.156-.013-.239-2.215-43.093-20.375-56.242-25.692-60.632s-25.652-10.138-18.61,18.64,42.2,44.45,42.2,44.45a1.823,1.823,0,0,0,.246.193c2.172,1.636,1.868-2.413,1.868-2.413M306.4,230.943c-7.736-42.561-28.767-54.737-34.35-56.933-5.679-2.231-31.325-5.782-15.88,23.76,13.816,26.422,43.434,34.048,49.533,35.371.726.145,1.115.217,1.115.217-.138-.812-.276-1.623-.418-2.415m3.668-60.2c-1.412-8.327-6.062-29-18.722-40.934-16.111-15.2-26.778-10.152-28.991,1.12-2.112,10.827,9.918,38.034,47.826,43.38l.421.066s-.145-1.356-.534-3.633m7.428-52.832c-.689-8.162-3.667-31.9-15.137-40.572-13.954-10.555-23.844-1.85-24.045,8.375-.2,10.041,19.29,34.428,38.351,34.989.337.012.685.016,1.025.008,0,0-.042-1.033-.194-2.8m55.6-81.867c.435-26.047-19.81-19.78-31.711-4-9.955,13.208-8.577,34.793-7.856,41.461l0,.01c.136,1.283.247,2.008.247,2.008s.52-.174,1.439-.541c7.039-2.734,37.5-15.891,37.883-38.94M349.9,277.4c-1.515-12.548-15.49-16.933-31.956-13.411-13.123,2.808-32.625,17.748-40.019,23.708,0,.009,0,.009-.011.008-1.882,1.518-2.973,2.453-2.973,2.453s.332.1,1.054.279c3.088.775,13.24,3.068,34.174,5.474,25.8,2.971,41.244-5.954,39.731-18.512m-4.652-66.61c-20.771,3.764-34.429,20.53-38.861,26.764-1.042,1.466-1.581,2.345-1.581,2.345.184.071.379.132.574.193,24.727,8.658,61.63,1.742,71.482-11.011,9.93-12.852-5.984-22.948-31.615-18.291m-.37-67.419c-20.221,10.918-29.292,28.656-32.381,36.2-.918,2.235-1.3,3.579-1.3,3.579.485-.016.96-.043,1.435-.06,25.4-1.165,39.655-7.323,51.9-15.071,20.29-12.856,6.565-38.8-19.645-24.646m13.367-46.016c-19.952-9.34-34.695,15.205-40.385,26.872C316.187,127.678,315.3,130,315.3,130c.325.082.653.155.98.227,13.734,2.992,31.569-.17,41.684-8.613,8.4-6.991,11.85-18.837.285-24.255" transform="translate(-13.096 -1.044)" fill="#411a6e" fill-rule="evenodd"/>
    <path id="Tracé_2" data-name="Tracé 2" d="M318.185,133.327a142.827,142.827,0,0,0-3.248,16.463c-1.368,10.728-.966,21.49-.531,32.884,0,.042,0,.072,0,.113.047,1.136.083,2.269.128,3.4.624,17.66.849,35.842-6.24,54.467-.3.8-.624,1.615-.957,2.423l-.049.116c-6.544,15.767-17.293,33.025-27.455,47.6,0,.01,0,.01-.011.008-.639.924-1.276,1.84-1.92,2.732-4.149,5.879-8.148,11.248-11.662,15.83l-2.4-.379c3.649-4.716,7.864-10.358,12.26-16.557.609-.868,1.231-1.754,1.855-2.651,10.157-14.55,20.915-31.795,27.42-47.517.831-2.014,1.58-4.018,2.235-6.028.249-.73.478-1.463.7-2.2,5.244-17.408,4.6-34.538,3.976-51.182-.07-1.827-.141-3.644-.2-5.448-.046-1.2-.085-2.382-.113-3.567a157.584,157.584,0,0,1,.861-24.328,176.048,176.048,0,0,1,5.736-25.712c.271-.932.54-1.864.831-2.793,5.559-18.549,12.859-36.761,16.034-44.394l0-.009c.96-2.311,1.542-3.655,1.574-3.732l1.949.842c-.035.087-.714,1.661-1.839,4.366-3.624,8.782-11.847,29.454-17.354,49.243q-.832,3.023-1.584,6" transform="translate(-15.005 -4.145)" fill="#411a6e"/>
    <path id="Tracé_3" data-name="Tracé 3" d="M219.414,316.291l-1.632.312a150.5,150.5,0,0,0-6.529-30.048c-.149-.457-.3-.9-.454-1.348-1.843-5.485-3.978-10.988-6.434-17.306-2.82-7.249-6.012-15.468-9.682-25.979-.45-1.276-.874-2.526-1.285-3.757l-.079-.253v-.01c-7.139-21.308-9.629-36.44-10.385-46-.659-8.2-.048-12.287.006-12.648l1.651.273c-.023.1-.734,4.957.3,14.9.933,9.033,3.317,22.256,9,39.9.241.78.506,1.565.762,2.371q.763,2.285,1.6,4.678c3.665,10.481,6.855,18.691,9.672,25.93,6.625,17.063,10.951,28.192,13.492,48.986" transform="translate(-10.387 -10.195)" fill="#dc135d"/>
    <path id="Tracé_4" data-name="Tracé 4" d="M210.488,195.075c-16.757,14.974-16.625,33.145-15.931,39.686a23.132,23.132,0,0,0,.367,2.509l.4-.138c13.2-4.484,28.239-14.754,38.566-29.1,10.431-14.5-2.554-31.592-23.4-12.96" transform="translate(-11.052 -10.63)" fill="#dc135d" fill-rule="evenodd"/>
    <path id="Tracé_5" data-name="Tracé 5" d="M191.172,239.391l0-.009c-.423-.971-2.355-5.141-9.946-19.112-9.024-16.6-23.451-16.311-30.394-13.674s-11.2,16.831,7.176,26.851c17.977,9.808,32.616,6.359,33.245,6.2l.02,0s-.023-.068-.1-.249" transform="translate(-8.241 -11.673)" fill="#dc135d" fill-rule="evenodd"/>
    <path id="Tracé_6" data-name="Tracé 6" d="M247.1,238.706c-7.526.882-13.421,4.96-21.749,19.992-9.9,17.882-9.208,28.456-9.208,28.456s17.445-1.664,33.408-18.631,5.944-30.793-2.452-29.817" transform="translate(-12.292 -13.573)" fill="#dc135d" fill-rule="evenodd"/>
    <path id="Tracé_7" data-name="Tracé 7" d="M208.986,289.473c-2.262-2.28-8.2-8.346-19.917-20.763-16.969-17.964-24.732-15.727-32.625-11.474s-10.759,21.956,12.829,31.114c20.9,8.114,36.812,3.6,40.166,2.47.437-.145.655-.239.655-.239s-.342-.337-1.109-1.108" transform="translate(-8.573 -14.46)" fill="#dc135d" fill-rule="evenodd"/>
    <path id="Tracé_8" data-name="Tracé 8" d="M174.686,154.545c-2.292,16.5,4.385,29.623,7.769,35.021a32.193,32.193,0,0,0,1.832,2.672l.125-.148c18.93-21.733,16.184-36.64,14.474-46.391-1.723-9.77-21.176-12.941-24.2,8.846" transform="translate(-9.908 -7.859)" fill="#dc135d" fill-rule="evenodd"/>
    <path id="Tracé_9" data-name="Tracé 9" d="M66.891,282.548c-.035-.076-.058-.143-.093-.22-16.687-39.793-38.227-46.01-44.717-48.339s-27.569-.846-11.192,23.843,54.766,27.52,54.766,27.52a1.737,1.737,0,0,0,.3.1c2.6.8.94-2.9.94-2.9M76.466,219.6c-21.7-37.422-45.612-41.751-51.609-41.926-6.1-.174-31.432,5.174-6.89,27.735,21.951,20.177,52.4,17.316,58.588,16.494.733-.109,1.122-.174,1.122-.174-.4-.717-.81-1.434-1.212-2.131M59.52,161.72c-4.15-7.355-15.531-25.232-31.484-32.167-20.31-8.846-28.633-.477-26.9,10.878,1.683,10.9,22.219,32.423,59.7,24.607l.418-.08s-.6-1.227-1.733-3.238M48.607,109.5c-3.414-7.445-14.258-28.767-27.99-33.042-16.7-5.2-23.06,6.338-19.784,16.027C4.045,102,30.647,118.336,48.771,112.4c.321-.1.65-.216.967-.339,0,0-.39-.957-1.131-2.569M73.179,13.632c-8.416-24.654-25.34-11.9-31.188,6.984-4.891,15.8,3.72,35.64,6.657,41.67l0,.009c.563,1.162.913,1.806.913,1.806s.43-.34,1.171-1c5.695-4.957,29.9-27.657,22.445-49.473M133.139,248.57c-5.677-11.292-20.31-10.682-34.609-1.79-11.395,7.089-24.681,27.753-29.618,35.867,0,.009,0,.009-.008.011-1.255,2.065-1.965,3.316-1.965,3.316s.348-.015,1.086-.094c3.168-.317,13.5-1.6,34.008-6.43,25.281-5.947,36.786-19.577,31.107-30.88m-26.947-61.093c-18.267,10.58-25.435,30.982-27.493,38.348-.484,1.733-.692,2.742-.692,2.742.2,0,.4,0,.605-.012,26.2-.233,58.574-19.245,63.522-34.581,4.987-15.457-13.406-19.564-35.943-6.5M83,124.171c-15.325,17.123-17.849,36.886-18.2,45.03-.107,2.413-.014,3.808-.014,3.808.45-.178.888-.366,1.329-.542,23.5-9.7,34.828-20.327,43.72-31.765,14.734-18.971-6.973-38.731-26.835-16.531M79.982,76.348c-21.936-2.026-27.489,26.061-28.891,38.966-.406,3.812-.457,6.3-.457,6.3.335-.033.667-.076,1-.119,13.936-1.839,29.644-10.856,36.3-22.228,5.532-9.424,4.767-21.738-7.951-22.917" transform="translate(0 0)" fill="#dc135d" fill-rule="evenodd"/>
    <path id="Tracé_10" data-name="Tracé 10" d="M54.53,125a142.8,142.8,0,0,0,2.522,16.59C59.4,152.151,63.426,162.14,67.7,172.712c.018.038.024.068.041.106.429,1.053.847,2.108,1.275,3.16,6.572,16.4,12.943,33.433,12.585,53.358-.011.859-.041,1.731-.08,2.6,0,.042,0,.083-.007.124-.815,17.053-5.081,36.931-9.7,54.092,0,.009,0,.009-.008.011-.288,1.087-.576,2.164-.88,3.222-1.913,6.937-3.855,13.342-5.608,18.846l-2.389.456c1.834-5.673,3.889-12.41,5.924-19.731.279-1.022.564-2.067.847-3.122,4.626-17.132,8.9-37,9.7-54,.1-2.175.124-4.315.06-6.427-.013-.771-.046-1.538-.09-2.3-.965-18.156-7.378-34.054-13.6-49.5-.685-1.695-1.368-3.38-2.029-5.059-.45-1.11-.887-2.213-1.316-3.317a157.5,157.5,0,0,1-7.434-23.181,176.12,176.12,0,0,1-3.315-26.134c-.061-.969-.124-1.936-.164-2.909-1.056-19.335-.359-38.944.042-47.2l0-.01c.121-2.5.212-3.96.217-4.044l2.118.132c0,.093-.108,1.805-.25,4.731-.435,9.491-1.166,31.726.358,52.21q.242,3.125.541,6.178" transform="translate(-2.897 -3.512)" fill="#dc135d"/>
  </g>
</svg>
